<?xml version="1.0" encoding="utf-8"?><svg version="1.1" xmlns="http://www.w3.org/2000/svg" xmlns:xlink="http://www.w3.org/1999/xlink" width="260px" height="35px" viewBox="0 0 260 35"><g style="fill:#231815;"><path d="M78.73,31.76h-2.27c-2.05,0-3.7-1.66-3.7-3.69V8.93h2.3v19.15c0,0.77,0.63,1.4,1.41,1.4h2.27V31.76z"/><path d="M219.44,18.2v-2.28h-3.68v-4.13h-2.29v4.13h-2.07v2.28h2.07v9.88c0,2.03,1.65,3.69,3.69,3.69h2.27v-2.29h-2.27c-0.78,0-1.41-0.63-1.41-1.4V18.2H219.44z"/><path d="M171.48,31.99h-1.06c-3.17,0-5.76-2.59-5.76-5.77v-4.77c0-3.18,2.59-5.77,5.76-5.77h1.06c3.19,0,5.77,2.59,5.77,5.77v4.77C177.25,29.4,174.67,31.99,171.48,31.99z M170.42,17.97c-1.91,0-3.48,1.56-3.48,3.49v4.77c0,1.92,1.57,3.48,3.48,3.48h1.06c1.92,0,3.48-1.56,3.48-3.48v-4.77c0-1.92-1.56-3.49-3.48-3.49H170.42z"/><path d="M237.54,31.99h-1.06c-3.17,0-5.76-2.59-5.76-5.77v-4.77c0-3.18,2.59-5.77,5.76-5.77h1.06c3.18,0,5.76,2.59,5.76,5.77v4.77C243.31,29.4,240.72,31.99,237.54,31.99z M236.48,17.97c-1.92,0-3.47,1.56-3.47,3.49v4.77c0,1.92,1.55,3.48,3.47,3.48h1.06c1.92,0,3.48-1.56,3.48-3.48v-4.77c0-1.92-1.56-3.49-3.48-3.49H236.48z"/><path d="M106.36,31.99h-1.4c-3.18,0-5.77-2.59-5.77-5.77v-4.77c0-3.18,2.59-5.77,5.77-5.77h1.4c3.19,0,5.76,2.59,5.76,5.77v2.93h-10.65v1.85c0,1.92,1.57,3.48,3.49,3.48h1.4c1.93,0,3.48-1.61,3.48-2.66v-0.36h2.28v0.36C112.12,29.33,109.61,31.99,106.36,31.99z M101.47,22.1h8.37v-0.64c0-1.92-1.56-3.49-3.48-3.49h-1.4c-1.92,0-3.49,1.56-3.49,3.49V22.1z"/><path d="M137.62,15.68h-0.83c-1.18,0-2.44,0.68-3.47,1.7v-1.47h-2.29v15.85h2.29v-9.49c0-1.96,2.13-4.31,3.47-4.31h0.83c1.92,0,3.48,1.56,3.48,3.49v10.31h2.28V21.45C143.39,18.27,140.8,15.68,137.62,15.68z"/><path d="M92.37,15.91v9.5c0,1.93-2.33,4.29-3.48,4.29h-0.83c-1.93,0-3.48-1.56-3.48-3.48V15.91h-2.29v10.31c0,3.18,2.58,5.77,5.77,5.77h0.83c1.17,0,2.43-0.71,3.48-1.75v1.52h2.28V15.91H92.37z"/><rect x="123.7" y="15.91" width="2.27" height="15.85"/><path d="M208.51,29.48c-0.78,0-1.41-0.63-1.41-1.4v-7.55c0-2.55-2.06-4.62-4.61-4.62h-5.4v2.28h5.4c1.28,0,2.33,1.04,2.33,2.33v1.82c-0.59-0.31-1.27-0.49-1.98-0.49h-3.05c-2.35,0-4.67,2.31-4.67,4.67v0.97c0,2.35,1.91,4.26,4.26,4.26h3.05c1.17,0,2.3-0.6,3.16-1.44c0.67,0.87,1.72,1.44,2.91,1.44h1.14v-2.29H208.51z M202.44,29.48h-3.05c-1.09,0-1.98-0.89-1.98-1.98v-0.97c0-1.1,1.29-2.39,2.39-2.39h3.05c1.09,0,1.98,0.89,1.98,1.98v1.17C204.82,28.04,203.54,29.48,202.44,29.48z"/><path d="M65.29,19.28c1.25-1.08,2.04-2.67,2.04-4.43c0-3.26-2.7-5.92-6-5.92h-7.36v22.83h8.34c3.3,0,6-2.7,6-6v-1.28C68.31,22.27,67.09,20.32,65.29,19.28z M61.33,11.22c2.04,0,3.71,1.63,3.71,3.63c0,2-1.67,3.64-3.71,3.64h-5.08v-7.27H61.33z M66.02,25.77c0,2.04-1.67,3.71-3.71,3.71h-6.06v-8.7h6.06c2.04,0,3.71,1.66,3.71,3.71V25.77z"/><path d="M126.34,11.62c0,0.82-0.67,1.49-1.5,1.49c-0.82,0-1.49-0.67-1.49-1.49c0-0.83,0.67-1.49,1.49-1.49C125.67,10.13,126.34,10.79,126.34,11.62z"/><rect x="224.14" y="15.91" width="2.29" height="15.85"/><path d="M226.77,11.62c0,0.82-0.67,1.49-1.5,1.49c-0.82,0-1.48-0.67-1.48-1.49c0-0.83,0.66-1.49,1.48-1.49C226.1,10.13,226.77,10.79,226.77,11.62z"/><path d="M154.58,15.68h-0.83c-1.19,0-2.44,0.68-3.49,1.7v-1.47h-2.28v15.85h2.28v-9.49c0-1.96,2.15-4.31,3.49-4.31h0.83c1.91,0,3.48,1.56,3.48,3.49v10.31h2.28V21.45C160.35,18.27,157.75,15.68,154.58,15.68z"/><path d="M254.23,15.68h-0.84c-1.18,0-2.43,0.68-3.47,1.7v-1.47h-2.29v15.85h2.29v-9.49c0-1.96,2.14-4.31,3.47-4.31h0.84c1.91,0,3.48,1.56,3.48,3.49v10.31H260V21.45C260,18.27,257.41,15.68,254.23,15.68z"/><polygon points="190.59,15.91 186.33,27.96 182.08,15.91 179.67,15.91 185.26,31.76 187.42,31.76 193.01,15.91 "/></g><g><polygon style="fill:#0058A1;" points="12.77,20.2 12.77,34.93 47.64,0.07 "/><polygon style="fill:#036EB7;" points="0,12.83 12.77,20.2 47.64,0.07 "/><polygon style="fill:#4B8CCA;" points="12.77,34.93 0,12.83 12.77,20.2 "/></g></svg>